# xmcd CD database file
#
# Track frame offsets:
#	150
#	19028
#	35456
#	54334
#
# Disc length: 941 seconds
#
# Revision: 0
# Processed by: cddbd v1.5.1PL0 Copyright (c) Steve Scherf et al.
# Submitted via: CDex 1.51
#
DISCID=2603ab04
DTITLE=kukui - ゆめわたりの夜
DYEAR=2004
DGENRE=Vocal
TTITLE0=ゆめわたりの夜
TTITLE1=雨の後に
TTITLE2=ゆめわたりの夜 (off vocal)
TTITLE3=雨の後に (off vocal)
EXTD=YEAR: 2004
EXTT0=
EXTT1=
EXTT2=
EXTT3=
PLAYORDER=
